<?xml version="1.0" encoding="UTF-8" standalone="no"?>
<!DOCTYPE svg PUBLIC "-//W3C//DTD SVG 1.1//EN"
 "http://www.w3.org/Graphics/SVG/1.1/DTD/svg11.dtd">
<!-- Generated by graphviz version 12.1.1 (20240910.0053)
 -->
<!-- Title: INFRA Pages: 1 -->
<svg width="187pt" height="80pt"
 viewBox="0.00 0.00 187.37 80.00" xmlns="http://www.w3.org/2000/svg" xmlns:xlink="http://www.w3.org/1999/xlink">
<g id="graph0" class="graph" transform="scale(1 1) rotate(0) translate(4 76)">
<title>INFRA</title>
<polygon fill="white" stroke="none" points="-4,4 -4,-76 183.37,-76 183.37,4 -4,4"/>
<!-- users -->
<g id="node1" class="node">
<title>users</title>
<path fill="#ffcfb3" stroke="black" stroke-width="2" d="M179.37,-65.45C179.37,-69.07 139.17,-72 89.69,-72 40.2,-72 0,-69.07 0,-65.45 0,-65.45 0,-6.55 0,-6.55 0,-2.93 40.2,0 89.69,0 139.17,0 179.37,-2.93 179.37,-6.55 179.37,-6.55 179.37,-65.45 179.37,-65.45"/>
<path fill="none" stroke="black" stroke-width="2" d="M179.37,-65.45C179.37,-61.84 139.17,-58.91 89.69,-58.91 40.2,-58.91 0,-61.84 0,-65.45"/>
<text text-anchor="middle" x="89.69" y="-40.2" font-family="Arial" font-size="14.00">users</text>
<text text-anchor="middle" x="89.69" y="-23.4" font-family="Arial" font-size="14.00">(AWS::DynamoDB::Table)</text>
</g>
</g>
</svg>
